#!OML:ASF F:\VICON\USERDATA\INSTALL\rory3\rory3.ASF
:FULLY-SPECIFIED
:DEGREES
46
root 0.3954941331016331 17.487313908493068 -3.2121513730399567 2.1082439418017485 4.0522363298279 -0.8999670761042378
lfemur -22.871830367412002 -9.29726743298276 -21.114144436982645
ltibia 36.887172160904086
lfoot -5.100363110816096 -15.016719155361034
ltoes 1.591386405959641
rfemur -6.763794675111139 -2.4917107200501714 26.30097790180518
rtibia 88.55587599050443
rfoot 21.767301468814665 -14.535023460546741
rtoes 21.199807673684138
lowerback nan -0.833951131098667 1.094059649753333
upperback -0.486619421415513 -0.4218772244343698 0.7093582827678255
thorax -9.725621884439137 0.14890464386161945 0.6455290294913302
lowerneck -19.62459000891386 -4.658438995858827 -2.660142408313044
upperneck 8.680790195123151 -4.449406862148423 3.9220596832966104
head 6.078125069929486 -2.143161352983072 1.3744796732238727
lclavicle -5.3806306893362855e-15 -1.3864507291106297e-14
lhumerus -54.57217451475763 0.006212540892111207 84.42845483979171
lradius 109.4847301448786
lwrist 29.92247976249182
lhand -25.83660565462107 5.77190237138387
lfingers nan
lthumb 1.0951189138348525 36.06608697569039
rclavicle -5.170386394483902e-15 -1.4114156306113952e-14
rhumerus -44.67370498477697 13.259665650873355 -97.52458414761556
rradius 112.96035917484505
rwrist -25.777824320329458
rhand -18.066465496036493 nan
rfingers nan
rthumb 8.045674069467095 4.525697028922722
47
root 0.3842117164088631 17.426790785580152 -2.451143498807509 2.110802779446671 3.2459955913972385 -0.8421008595494182
lfemur -22.090872410247453 -8.999090325707558 -21.363095093087278
ltibia 39.850026287654714
lfoot -9.184981070121099 -12.72125762899834
ltoes -3.475539047052017
rfemur -9.012013366169846 -3.028999479505359 25.200882685145547
rtibia 91.71988792423488
rfoot 21.349177460734495 -13.015776913627768
rtoes 20.281801987386842
lowerback nan -0.7902647399352553 0.849965088274776
upperback -0.46070004646932106 -0.43055543571249144 0.6911339541949467
thorax -9.995227455080348 0.196446925681249 0.7648444983002274
lowerneck -19.315904726552677 -4.575351771790397 -2.73416980247687
upperneck 8.464513312929817 -4.299409310838632 4.114499315265025
head 5.9634196103838395 -2.0560521587758096 1.4594650486589804
lclavicle 2.2272711075514443e-14 3.2134165651268495e-15
lhumerus -53.26103435103396 0.10737762336003875 84.4211123819787
lradius 109.47946924194598
lwrist 30.026156378277058
lhand -26.462641715327834 5.836306389724995
lfingers nan
lthumb 0.4974257544372367 36.121407871139496
rclavicle 2.232338923443095e-14 2.8512514966479553e-15
rhumerus -44.72550538192061 12.990114641001009 -97.71856778841986
rradius 110.4406743287787
rwrist -27.008357679867615
rhand -18.52977755623364 nan
rfingers nan
rthumb 7.5664327919593 3.2381019734471375
48
root 0.3645578162896287 17.364805576153692 -1.8002975836371338 2.2574983622759426 2.676422747203403 -0.547141616025137
lfemur -21.52994758232857 -9.200446701800242 -21.817224102083486
ltibia 42.41412526329333
lfoot -11.666190318291626 -10.198586431101061
ltoes 3.142224639104956
rfemur -11.782721759758902 -3.719566565207536 23.81122455309647
rtibia 95.05183543290899
rfoot 20.417849616102195 -11.477089491217193
rtoes 10.392845007777613
lowerback nan -0.7263648914807243 0.49524203204407224
upperback -0.2909277062457597 -0.4704364706939481 0.5895743318244497
thorax -9.816518355460213 0.24453496065746583 0.9061257391656095
lowerneck -19.67861047165466 -4.5088220618300445 -2.6429499046742477
upperneck 8.397307840082842 -4.217117556504014 4.113246076221639
head 5.997366520573132 -1.9859691504808563 1.4538436800281993
lclavicle -3.7027299610629405e-15 -1.7301603511214492e-14
lhumerus -51.66831464724521 0.26751668198392053 84.33951097759363
lradius 109.60371496345495
lwrist 30.103061755721697
lhand -25.794868920886643 5.952532451379645
lfingers nan
lthumb 1.1525976273234237 36.23596117822007
rclavicle -3.5417642588896406e-15 -1.7553814259167597e-14
rhumerus -44.58062752721915 12.410452345681682 -97.79747016573363
rradius 108.17464338316813
rwrist -27.949692152618322
rhand -19.483128660011822 nan
rfingers nan
rthumb 6.696569442825534 1.1618236182402182
49
root 0.33624607671458906 17.31921367509789 -1.5323119997116166 2.546027988018489 1.7594947084840407 -0.4072260459301562
lfemur -20.66973312186992 -8.910786022875172 -22.103893039977677
ltibia 44.12589015193228
lfoot -14.162711808896574 -7.8396348783009495
ltoes 6.332112683906324
rfemur -14.783981368416406 -3.896756207441307 22.84620928955102
rtibia 97.84724870517758
rfoot 19.93875024001546 -10.452445665665543
rtoes 13.251605870493115
lowerback nan -0.5498127348188352 0.13350693124295843
upperback -0.08539048292612161 -0.36872314190328237 0.5183844317739013
thorax -9.32819901288344 0.36317134694632036 1.0276201749510439
lowerneck -20.16023355320526 -4.452299553444421 -2.581760110512437
upperneck 8.036105711280383 -4.161020041248562 4.215081077316928
head 5.976776872852367 -1.928259769899069 1.4748119317550004
lclavicle 7.550017609857532e-15 -7.056577154149111e-15
lhumerus -50.05450752767274 0.3711728097875726 84.2627615774794
lradius 109.75234778160245
lwrist 30.21424808559644
lhand -25.031809010867633 6.23029386104744
lfingers nan
lthumb 1.9033371272423347 36.512950961572315
rclavicle 7.94705178120905e-15 -7.384564483051703e-15
rhumerus -44.601124034400776 11.677204069209333 -97.80698515011615
rradius 106.23378226414032
rwrist -28.256050992730547
rhand -19.43381468204863 nan
rfingers nan
rthumb 6.760408297507834 2.749429498432061
50
root 0.2967197122312174 17.298140734180947 -1.231265661406578 2.8126517864775096 0.06878994513970027 0.13026755475045793
lfemur -19.397212627527082 -7.806595563724274 -23.113264810257434
ltibia 45.232459953619724
lfoot -17.208323334657532 -4.3558422077817704
ltoes 3.2008786928658566
rfemur -17.80324081734551 -3.3295887109870876 21.24731528369155
rtibia 100.5729991415698
rfoot 19.88706948499997 -9.318482031183693
rtoes 19.17920944340394
lowerback nan -0.2072455280456439 -0.7858327463822987
upperback -0.06435317718275924 -0.14072384327007148 0.36853622979764067
thorax -9.394057186037651 0.5257674746895971 1.1866149703269593
lowerneck -20.01357268025496 -4.370307876844266 -2.601457452803159
upperneck 7.5144492331802 -4.078340701656757 4.420736104536414
head 5.803793191658109 -1.8608022088612024 1.5467851345334869
lclavicle -1.4885384468025875e-14 2.673320499648559e-14
lhumerus -48.68891700869325 0.6104377290086358 84.12821580620624
lradius 109.87816804680915
lwrist 30.274124275777336
lhand -24.782640507995826 6.749597319925666
lfingers nan
lthumb 2.1585141941772834 37.03591635806346
rclavicle -1.4255904044057575e-14 2.6349564830829955e-14
rhumerus -45.48493515749043 10.624715415370492 -97.929545369578
rradius 105.11744397579442
rwrist -27.64829507389724
rhand -20.23067109128211 nan
rfingers nan
rthumb 6.009592612461557 -0.8021375344910897
